<?xml version="1.0" encoding="UTF-8"?><svg id="Layer_2" xmlns="http://www.w3.org/2000/svg" xmlns:xlink="http://www.w3.org/1999/xlink" viewBox="0 0 1500 496.92"><defs><style>.cls-1,.cls-2,.cls-3{fill:#f38484;}.cls-4{filter:url(#outer-glow-4);}.cls-5{fill:#fff;}.cls-6{fill:url(#radial-gradient-3);filter:url(#outer-glow-3);}.cls-7{fill:url(#radial-gradient-2);filter:url(#outer-glow-2);}.cls-2{filter:url(#outer-glow-6);}.cls-3{filter:url(#outer-glow-5);}.cls-8{opacity:.72;}.cls-9{opacity:.54;}.cls-10{fill:url(#radial-gradient);filter:url(#outer-glow-1);}</style><radialGradient id="radial-gradient" cx="8054.64" cy="260.88" fx="8054.64" fy="260.88" r="183.4" gradientTransform="translate(7561.17 3595.86) rotate(-157.03) scale(1 .8)" gradientUnits="userSpaceOnUse"><stop offset=".9" stop-color="#1d2021"/><stop offset=".91" stop-color="#212223"/><stop offset=".92" stop-color="#302829"/><stop offset=".94" stop-color="#483233"/><stop offset=".95" stop-color="#694141"/><stop offset=".96" stop-color="#935453"/><stop offset=".98" stop-color="#c76b68"/><stop offset=".99" stop-color="#f27e7b"/></radialGradient><filter id="outer-glow-1" x="43.84" y="100.17" width="135.36" height="243.84" filterUnits="userSpaceOnUse"><feOffset dx="0" dy="0"/><feGaussianBlur result="blur" stdDeviation="2"/><feFlood flood-color="#f7acaa" flood-opacity=".44"/><feComposite in2="blur" operator="in"/><feComposite in="SourceGraphic"/></filter><radialGradient id="radial-gradient-2" cx="228.8" cy="233.46" fx="197.06" fy="233.46" r="129" gradientTransform="translate(0 82.52)" gradientUnits="userSpaceOnUse"><stop offset=".87" stop-color="#1d2021"/><stop offset=".88" stop-color="#282525"/><stop offset=".9" stop-color="#473233"/><stop offset=".94" stop-color="#7a4948"/><stop offset=".97" stop-color="#be6765"/><stop offset="1" stop-color="#f27e7b"/></radialGradient><filter id="outer-glow-2" x="90.88" y="353.13" width="275.76" height="100.32" filterUnits="userSpaceOnUse"><feOffset dx="0" dy="0"/><feGaussianBlur result="blur-2" stdDeviation="2"/><feFlood flood-color="#f7acaa" flood-opacity=".44"/><feComposite in2="blur-2" operator="in"/><feComposite in="SourceGraphic"/></filter><radialGradient id="radial-gradient-3" cx="1386.79" cy="260.82" fx="1386.79" fy="260.82" r="183.4" gradientTransform="translate(-964.61 994.07) rotate(-22.97) scale(1 -.8)" xlink:href="#radial-gradient"/><filter id="outer-glow-3" x="278.08" y="100.17" width="135.36" height="243.84" filterUnits="userSpaceOnUse"><feOffset dx="0" dy="0"/><feGaussianBlur result="blur-3" stdDeviation="2"/><feFlood flood-color="#f7acaa" flood-opacity=".44"/><feComposite in2="blur-3" operator="in"/><feComposite in="SourceGraphic"/></filter><filter id="outer-glow-4" x="56.32" y="95.13" width="344.88" height="336.24" filterUnits="userSpaceOnUse"><feOffset dx="0" dy="0"/><feGaussianBlur result="blur-4" stdDeviation="2"/><feFlood flood-color="#f48a8b" flood-opacity=".7"/><feComposite in2="blur-4" operator="in"/><feComposite in="SourceGraphic"/></filter><filter id="outer-glow-5" x="211.6" y="75.21" width="34.32" height="173.76" filterUnits="userSpaceOnUse"><feOffset dx="0" dy="0"/><feGaussianBlur result="blur-5" stdDeviation="2"/><feFlood flood-color="#f48a8b" flood-opacity=".7"/><feComposite in2="blur-5" operator="in"/><feComposite in="SourceGraphic"/></filter><filter id="outer-glow-6" x="206.08" y="13.53" width="45.6" height="45.6" filterUnits="userSpaceOnUse"><feOffset dx="0" dy="0"/><feGaussianBlur result="blur-6" stdDeviation="2"/><feFlood flood-color="#f48a8b" flood-opacity=".7"/><feComposite in2="blur-6" operator="in"/><feComposite in="SourceGraphic"/></filter></defs><g class="cls-8"><path class="cls-1" d="M366.94,350.81c-27.89,47.51-78.68,107.39-138.18,108-53.56-.73-97.54-47.52-126.01-88.73-4.13-6.27-8.75-12.83-12-19.35,3.82,6.55,8.02,12.88,12.37,19.09,28.72,40.29,72.7,87,125.64,87.54,59.31-.5,109.36-60.39,138.18-106.56h0Z"/></g><g class="cls-9"><path class="cls-1" d="M370.58,344.85c-23.36,47.84-64.15,108.39-116.99,125.35-42.8,13.9-83-11.5-111.13-42.16-17.09-18.4-31.46-39.17-43.86-60.96-4.04-7.27-8.23-14.76-11.52-22.26,3.6,7.54,7.6,14.88,11.77,22.12,21.09,35.56,46.66,70.64,82.6,92.31,84.02,50.25,155.7-47.69,189.13-114.4h0Z"/></g><g class="cls-9"><path class="cls-1" d="M285.11,106.29c40.87,10.31,106.1,20.48,130.16,57.97,25.93,41.16.89,99.35-19.85,137.99-6.66,12.13-13.88,24.12-21.57,35.55,7.62-11.58,14.83-23.43,21.44-35.62,20.77-39.05,45.14-95.9,19.39-137.54-23.85-37.43-88.9-47.6-129.56-58.35h0Z"/></g><g class="cls-8"><path class="cls-1" d="M285.12,106.28c42.43,11.99,114.1,35.88,126.64,83.31,12.89,51.84-9.73,105.54-37.92,148.2,28.96-44.66,53.65-104.29,33.22-156.94-19-40.64-81.59-62.08-121.93-74.56h0Z"/></g><g class="cls-9"><path class="cls-1" d="M172.13,106.37c-40.56,10.65-105.86,21.02-129.56,58.34-25.76,41.66-1.4,98.45,19.39,137.54,6.61,12.18,13.82,24.04,21.44,35.62-7.69-11.43-14.91-23.41-21.57-35.55-20.73-38.6-45.79-96.85-19.86-137.99,23.93-37.39,89.35-47.73,130.16-57.95h0Z"/></g><g class="cls-8"><path class="cls-1" d="M172.13,106.38c-40.3,12.32-103.03,34.01-121.94,74.53-20.44,52.6,4.26,112.32,33.22,156.94-28.19-42.65-50.82-96.37-37.92-148.2,12.47-47.32,84.25-71.44,126.65-83.27h0Z"/></g><path class="cls-10" d="M83.14,337.87c-48.94-78.36-32.98-136.84-20.05-160.25,17.32-29.62,62.43-57.16,110.06-71.39-102.97,65.39-113.3,141.31-90.01,231.63Z"/><path class="cls-7" d="M97.11,359.14s58.31,88.21,131.6,88.21,131.77-88.21,131.77-88.21c-80.76,75.62-182.82,71.36-263.37,0Z"/><path class="cls-6" d="M374.09,337.81c48.94-78.36,32.98-136.84,20.05-160.25-17.32-29.62-62.43-57.16-110.06-71.39,102.97,65.39,113.3,141.31,90.01,231.63Z"/><g class="cls-4"><path class="cls-1" d="M281.75,101.35l.7,11.03c.32,5.04,3.39,9.46,7.96,11.61,15.83,7.42,30.5,17.53,43.76,29.71,29.28,26.88,41.95,66.88,43.68,105.44,1.66,37.15-17.81,79.58-43.68,105.44-27.04,27.04-67.21,43.68-105.44,43.68-40.4,0-76.27-16.89-105.44-43.68-29.28-26.88-41.95-66.88-43.68-105.44-1.66-37.15,17.81-79.58,43.68-105.44,12.14-12.14,26.93-22.15,42.99-29.52,4.67-2.14,7.84-6.62,8.15-11.75l.66-10.87c-66.94,22.86-114.79,87.29-112.62,162.35,2.49,85.98,71.31,156.6,157.2,161.18,95.8,5.1,175.37-71.37,175.37-166.08,0-73.18-47.5-135.47-113.29-157.65Z"/></g><rect class="cls-3" x="217.8" y="81.21" width="21.99" height="161.62" rx="2.77" ry="2.77"/><circle class="cls-2" cx="228.8" cy="36.37" r="16.71"/><path class="cls-5" d="M494.36,138.24c0-16.34,13.07-28.69,29.78-28.69s30.14,12.35,30.14,28.69-13.07,28.69-30.14,28.69-29.78-12.35-29.78-28.69ZM498.35,192.71h52.29v189.92h-52.29v-189.92Z"/><path class="cls-5" d="M588.77,386.62h52.29c3.27,16.7,15.25,27.6,42.12,27.6,31.96,0,47.93-16.7,47.93-46.48v-28.69c-10.53,18.52-33.04,35.22-61.01,35.22-46.12,0-82.79-34.5-82.79-90.78v-2.54c0-54.47,36.31-92.6,83.52-92.6,30.87,0,49.39,13.44,60.28,32.68v-28.32h52.29v175.03c-.36,56.29-37.77,84.97-100.22,84.97s-89.33-26.87-94.41-66.09ZM732.57,282.77v-2.54c0-32.32-17.07-51.93-45.75-51.93s-45.75,21.06-45.75,52.29v2.91c0,31.59,18.52,51.2,44.67,51.2,27.6,0,46.84-19.61,46.84-51.93Z"/><path class="cls-5" d="M829.89,192.71h52.65v30.14c9.44-18.88,30.14-34.5,61.73-34.5,37.4,0,63.91,22.51,63.91,73.35v120.92h-52.65v-113.3c0-25.78-10.17-38.13-33.41-38.13s-39.58,13.8-39.58,41.76v109.67h-52.65v-189.92Z"/><path class="cls-5" d="M1050.67,138.24c0-16.34,13.07-28.69,29.78-28.69s30.14,12.35,30.14,28.69-13.07,28.69-30.14,28.69-29.78-12.35-29.78-28.69ZM1054.67,192.71h52.29v189.92h-52.29v-189.92Z"/><path class="cls-5" d="M1163.24,326.34v-96.23h-24.33v-37.4h24.33v-41.03h52.29v41.03h39.94v37.4h-39.94v91.51c0,15.25,7.63,22.51,21.06,22.51,7.99,0,13.8-1.09,19.97-3.63v40.67c-7.26,2.54-17.79,5.08-31.96,5.08-39.94,0-61.37-20.33-61.37-59.92Z"/><path class="cls-5" d="M1280.53,290.03v-2.91c0-59.92,42.49-98.77,97.68-98.77,49.02,0,92.6,28.69,92.6,96.59v14.53h-136.9c1.45,31.59,18.52,49.75,47.21,49.75,24.33,0,36.31-10.53,39.58-26.51h49.75c-6.17,41.03-38.85,63.91-90.78,63.91-57.37,0-99.13-35.95-99.13-96.59ZM1419.61,267.15c-1.82-28.69-16.34-42.49-41.4-42.49-23.6,0-39.58,15.61-43.58,42.49h84.97Z"/></svg>